<?xml version="1.0" encoding="UTF-8"?>
<svg version="1.1" xmlns="http://www.w3.org/2000/svg" width="512" height="512">
<path d="M0 0 C4.91055952 2.84825887 9.50790431 6.12705111 14.0234375 9.5625 C16.43031831 11.35501183 18.88365662 12.92840407 21.4375 14.5 C28.29870562 19.06595437 32.09784306 24.91129189 34.16015625 32.85546875 C35.48306295 40.381585 34.8190431 47.23223224 32.625 54.5 C34.1409375 54.4071875 34.1409375 54.4071875 35.6875 54.3125 C40.26553442 54.53050164 42.60690989 55.37277583 46.625 57.5 C48.72562755 60.65094133 48.96813286 61.7224366 49.0625 65.375 C49.10246094 66.21804687 49.14242188 67.06109375 49.18359375 67.9296875 C48.33246887 71.84605235 46.87471027 73.18406724 43.625 75.5 C40.32706825 76.09060856 37.14908774 75.97422871 33.8125 75.8125 C32.92884766 75.78994141 32.04519531 75.76738281 31.13476562 75.74414062 C28.9641109 75.68547428 26.7943331 75.59579979 24.625 75.5 C24.57601563 76.09675537 24.52703125 76.69351074 24.4765625 77.30834961 C23.55351188 87.11277842 19.83085767 93.38578292 12.1953125 99.7109375 C5.40635651 104.43638103 -1.62177042 106.56314786 -9.76953125 107.6328125 C-11.0119458 107.7992627 -12.25436035 107.96571289 -13.53442383 108.13720703 C-14.94050903 108.31678955 -14.94050903 108.31678955 -16.375 108.5 C-15.87685791 109.95515015 -15.87685791 109.95515015 -15.36865234 111.43969727 C-4.42007272 143.49895971 5.35699205 175.60391755 8.625 209.5 C8.73585938 210.56734375 8.84671875 211.6346875 8.9609375 212.734375 C12.79900616 256.09417772 6.63640126 303.79174235 -21.16015625 338.8671875 C-24.79293738 343.18551992 -28.50172043 347.39568271 -32.375 351.5 C-33.04789062 352.23734375 -33.72078125 352.9746875 -34.4140625 353.734375 C-52.25699369 372.57971806 -77.14746321 384.32344171 -101.51342773 392.19042969 C-107.82036955 394.263726 -112.83342002 398.02540206 -118.1875 401.875 C-120.24561247 403.33140952 -122.30421287 404.78712976 -124.36328125 406.2421875 C-125.38115723 406.9650293 -126.3990332 407.68787109 -127.44775391 408.43261719 C-131.5583372 411.33573807 -135.71345164 414.17068467 -139.875 417 C-141.39220396 418.03865817 -142.90912552 419.07772896 -144.42578125 420.1171875 C-147.0893649 421.94128875 -149.75717753 423.75853007 -152.43115234 425.56738281 C-155.64785918 427.74420388 -158.85557646 429.93379948 -162.0625 432.125 C-163.08601562 432.81271484 -164.10953125 433.50042969 -165.1640625 434.20898438 C-166.10378906 434.85416016 -167.04351562 435.49933594 -168.01171875 436.1640625 C-168.85436279 436.73592285 -169.69700684 437.3077832 -170.56518555 437.89697266 C-171.16242432 438.42597168 -171.75966309 438.9549707 -172.375 439.5 C-172.375 443.34015252 -170.84795062 445.97615646 -169.1640625 449.328125 C-168.67176651 450.32897125 -168.67176651 450.32897125 -168.16952515 451.35003662 C-167.11860231 453.48617014 -166.06023151 455.61847287 -165 457.75 C-163.61050541 460.54363555 -162.22880428 463.34093224 -160.8515625 466.140625 C-160.53377838 466.773172 -160.21599426 467.40571899 -159.88858032 468.05743408 C-157.87302096 472.15644818 -156.50813672 476.09893373 -155.375 480.5 C-154.09858643 480.58040527 -152.82217285 480.66081055 -151.50708008 480.74365234 C-146.76351302 481.04467232 -142.02071759 481.35663352 -137.27807617 481.671875 C-135.22683754 481.80669059 -133.1754026 481.93855349 -131.1237793 482.06738281 C-128.17179469 482.25326705 -125.22068318 482.44982113 -122.26953125 482.6484375 C-121.35476517 482.70373627 -120.43999908 482.75903503 -119.49751282 482.81600952 C-113.80943317 483.21202792 -109.41203207 483.6281327 -105.0625 487.625 C-102.86713741 491.36524737 -102.50092064 494.25814428 -103.375 498.5 C-105.16863911 501.3100346 -106.39380935 503.00940468 -109.375 504.5 C-120.91100417 505.15355491 -132.44018315 504.15997004 -143.93139648 503.21166992 C-147.07817548 502.95442068 -150.22544789 502.72038306 -153.375 502.5 C-154.10203125 502.43876953 -154.8290625 502.37753906 -155.578125 502.31445312 C-162.49716807 501.97060616 -168.67022262 504.71406055 -175.06640625 507.01171875 C-181.1231449 509.08131564 -186.94676403 510.58897298 -193.375 509.5 C-196.19924288 507.30977082 -197.79008603 505.66982793 -199.375 502.5 C-200.303125 503.7065625 -200.303125 503.7065625 -201.25 504.9375 C-203.375 507.5 -203.375 507.5 -205.375 508.5 C-231.89930458 509.77376604 -231.89930458 509.77376604 -240.375 504.5 C-243.46640352 500.27935323 -244.68404636 495.65576341 -246.0625 490.6875 C-246.39991211 489.50510742 -246.39991211 489.50510742 -246.74414062 488.29882812 C-247.29421595 486.36771261 -247.83550006 484.43409664 -248.375 482.5 C-252.61833907 483.41275991 -256.79421566 484.31659442 -260.9375 485.625 C-265.120943 486.6898764 -268.06199203 486.91738787 -272.375 486.5 C-275.1850346 484.70636089 -276.88440468 483.48119065 -278.375 480.5 C-278.6484375 478.51171875 -278.6484375 478.51171875 -278.75 476.1875 C-278.79898438 475.42824219 -278.84796875 474.66898437 -278.8984375 473.88671875 C-278.07140573 470.11570073 -276.41413119 468.86334922 -273.375 466.5 C-269.89588292 464.943153 -266.32796023 463.80555321 -262.6875 462.6875 C-261.72521484 462.37619141 -260.76292969 462.06488281 -259.77148438 461.74414062 C-252.74313187 459.5 -252.74313187 459.5 -250.375 459.5 C-250.31892578 458.45779297 -250.31892578 458.45779297 -250.26171875 457.39453125 C-249.72516638 449.09375053 -248.63602886 440.95811218 -247.3034668 432.74926758 C-246.21323249 426.55556211 -246.21323249 426.55556211 -247.375 420.5 C-249.22755629 418.09614103 -249.22755629 418.09614103 -251.5625 415.8125 C-262.375 404.29183307 -262.375 404.29183307 -262.375 398.5 C-263.11621094 398.48582031 -263.85742188 398.47164063 -264.62109375 398.45703125 C-289.8485881 397.31453763 -309.59391259 384.86078854 -326.375 366.5 C-336.85245027 353.92290196 -342.4811489 338.84142379 -346.171875 323.1015625 C-346.55085938 321.50441406 -346.55085938 321.50441406 -346.9375 319.875 C-347.14503906 318.93398438 -347.35257812 317.99296875 -347.56640625 317.0234375 C-348.42762058 314.33578313 -349.64295597 312.69744091 -351.375 310.5 C-351.375 309.84 -351.375 309.18 -351.375 308.5 C-351.92542969 308.25378906 -352.47585938 308.00757813 -353.04296875 307.75390625 C-364.68209106 301.49568471 -373.62459087 290.72531762 -378.375 278.5 C-380.16520587 272.44313681 -381.40082371 266.63002951 -381.5 260.3125 C-381.91915297 254.66304694 -385.25068597 251.95647831 -389.08203125 248.0703125 C-392.69556119 244.01971165 -394.57997994 239.57583404 -396.375 234.5 C-396.74238281 233.46166016 -396.74238281 233.46166016 -397.1171875 232.40234375 C-399.81151796 222.82455261 -398.88761457 211.654536 -397.375 201.9375 C-396.63815191 193.97157469 -400.56417806 188.13017645 -404.34130859 181.41601562 C-410.23911698 170.48403636 -412.91486282 159.85237787 -411.375 147.5 C-408.77825242 139.00492578 -404.27137519 132.83829485 -396.57421875 128.48046875 C-387.0081081 124.1430397 -376.5495508 126.26955906 -367.0234375 129.63671875 C-353.15288106 134.96337664 -340.09811618 142.50982695 -327.125 149.6875 C-305.11318647 161.81905536 -281.90872816 171.95381068 -256.7722168 175.04614258 C-251.07732221 175.82422856 -248.03776502 176.70334438 -244.375 181.5 C-242.94195936 184.36608129 -243.06855845 186.31300783 -243.375 189.5 C-246.53289474 195.07894737 -246.53289474 195.07894737 -249.375 196.5 C-262.51383174 197.61469922 -274.72012624 194.67829372 -287.375 191.5 C-280.59492545 201.71601176 -273.53111419 211.34404765 -265.375 220.5 C-264.71032715 221.25724365 -264.71032715 221.25724365 -264.03222656 222.02978516 C-239.20264122 250.27819945 -207.67521569 272.00841334 -170.375 279.5 C-169.29992187 279.72429687 -168.22484375 279.94859375 -167.1171875 280.1796875 C-144.8501394 284.09654174 -119.34255254 283.17189956 -99.78515625 270.87109375 C-88.28398403 262.39758054 -80.97245521 251.64542797 -78.375 237.5 C-77.18881735 225.64471979 -77.37458506 212.81221574 -84.29296875 202.6953125 C-92.55165489 192.84335771 -103.54396777 187.9494969 -115.375 183.5 C-116.90640625 182.86191406 -116.90640625 182.86191406 -118.46875 182.2109375 C-130.14154729 178.4259463 -141.38199793 183.14543603 -152.64282227 186.69628906 C-158.84319913 188.52022264 -165.12048994 189.84425415 -171.25 187.3125 C-173.83693695 185.10599495 -174.6210497 183.8173813 -175.375 180.5 C-175.29981846 176.2898336 -174.94047778 174.18917605 -172.25 170.91015625 C-168.94960564 168.14338543 -166.61299192 167.39559046 -162.4375 166.4375 C-161.11067401 166.10678318 -159.78385117 165.77605369 -158.45703125 165.4453125 C-155.77509012 164.80996392 -153.08641538 164.23391659 -150.38671875 163.6796875 C-149.14535156 163.39351562 -147.90398437 163.10734375 -146.625 162.8125 C-144.93117188 162.46638672 -144.93117188 162.46638672 -143.203125 162.11328125 C-140.03980598 160.30879126 -139.80620487 159.83128806 -138.67578125 156.546875 C-138.21928537 154.87065297 -137.78693353 153.18772615 -137.375 151.5 C-136.88748219 149.73734637 -136.39647728 147.97565422 -135.90234375 146.21484375 C-135.52082153 144.81903076 -135.52082153 144.81903076 -135.1315918 143.39501953 C-124.4484048 104.82091303 -104.53008116 64.34319574 -68.5 43.6875 C-61.40242371 39.74449708 -54.12206009 36.9088515 -46.375 34.5 C-46.40980469 33.82195313 -46.44460938 33.14390625 -46.48046875 32.4453125 C-46.76017434 22.8287679 -45.30387097 14.90877732 -39.11328125 7.3203125 C-29.01830658 -3.25105423 -13.36573838 -6.43794728 0 0 Z M-24.375 23.5 C-25.56739042 27.59822197 -25.56739042 27.59822197 -24.375 31.5 C-22.53792244 31.88575816 -22.53792244 31.88575816 -20.32421875 31.95703125 C-19.48584473 32.01487793 -18.6474707 32.07272461 -17.78369141 32.13232422 C-16.88569824 32.19178223 -15.98770508 32.25124023 -15.0625 32.3125 C-4.20773943 33.20791665 4.82071657 35.89678743 13.625 42.5 C13.39691496 38.62255427 13.10852888 36.14470518 10.75 33 C7.28940603 29.94180068 3.25667997 27.61504378 -0.671875 25.21484375 C-2.94004823 23.77593039 -4.93446085 22.2660872 -7 20.5625 C-13.59854864 16.53005361 -19.75723818 16.86196738 -24.375 23.5 Z M-54.375 60.5 C-55.33921875 60.96921875 -56.3034375 61.4384375 -57.296875 61.921875 C-76.6393985 72.25835581 -89.47789273 90.44717984 -99.375 109.5 C-99.70064941 110.12003906 -100.02629883 110.74007812 -100.36181641 111.37890625 C-104.97675999 120.28928001 -108.55798883 129.42723596 -111.75 138.9375 C-112.25080078 140.42902588 -112.25080078 140.42902588 -112.76171875 141.95068359 C-114.75170223 148.07315849 -116.27084665 154.15763884 -117.375 160.5 C-116.84769287 160.67015625 -116.32038574 160.8403125 -115.77709961 161.015625 C-94.75527265 167.87766032 -74.06512685 176.12556708 -63.3125 197 C-55.31021617 213.75414868 -54.83303483 234.11305892 -60.0546875 251.859375 C-67.48269819 272.34134529 -80.18171098 285.68447708 -99.8046875 295 C-133.40217237 309.1153547 -173.50181743 303.70167839 -206.45654297 290.37426758 C-238.18994635 277.0044302 -266.08415829 254.43505814 -287.375 227.5 C-288.29442984 226.39119706 -289.21643793 225.28452842 -290.140625 224.1796875 C-295.89037776 217.24949668 -301.1420562 210.10664767 -306.0625 202.5625 C-306.56040039 201.80138916 -307.05830078 201.04027832 -307.57128906 200.25610352 C-308.31523926 199.09485962 -308.31523926 199.09485962 -309.07421875 197.91015625 C-309.60200928 197.08725098 -310.1297998 196.2643457 -310.67358398 195.41650391 C-311.98602008 193.16677488 -313.09252476 191.00028613 -314.17211914 188.64208984 C-319.8072689 176.76916839 -326.67251001 172.30960953 -338.4375 167 C-339.94935448 166.27779412 -341.45913908 165.55123882 -342.96679688 164.8203125 C-345.94650838 163.38303705 -348.936492 161.97215408 -351.93847656 160.58203125 C-357.06552443 158.19688486 -362.11148208 155.65698942 -367.14820862 153.08752441 C-376.79053286 148.11994553 -376.79053286 148.11994553 -387.375 147.5 C-389.65186335 149.24559523 -390.23641154 150.64451571 -390.69140625 153.453125 C-391.02873877 159.67745413 -389.21823637 164.07352822 -386.375 169.5 C-385.86582031 170.57121094 -385.35664063 171.64242187 -384.83203125 172.74609375 C-379.46661684 183.56286742 -373.82660593 187.98185763 -362.74609375 192.4140625 C-357.78126133 194.01339438 -352.7763438 194.8508387 -347.625 195.62890625 C-344.02566356 196.59363224 -342.6718589 197.62340508 -340.375 200.5 C-338.63158252 203.98683496 -339.504937 207.79543488 -340.375 211.5 C-343.14707097 214.78541745 -346.21958359 215.05286747 -350.375 215.5 C-353.02521639 215.17842563 -355.52322703 214.78985543 -358.125 214.25 C-359.17300781 214.04346802 -359.17300781 214.04346802 -360.2421875 213.83276367 C-365.72360593 212.71840243 -371.07503279 211.29638312 -376.375 209.5 C-378.20331657 211.32831657 -377.59112455 214.10370688 -377.625 216.5625 C-377.55112139 225.00313094 -375.49604421 230.67194105 -370.375 237.5 C-369.83875 238.2425 -369.3025 238.985 -368.75 239.75 C-360.77759129 245.62440642 -347.64756499 243.87694948 -338.27929688 243.97851562 C-337.07724609 244.00494141 -335.87519531 244.03136719 -334.63671875 244.05859375 C-333.55350342 244.07204834 -332.47028809 244.08550293 -331.35424805 244.09936523 C-327.98631068 244.55226905 -326.09615355 245.49508288 -323.375 247.5 C-321.66042095 250.38361023 -321.36759907 252.14475538 -321.4375 255.5 C-322.65738403 259.4036289 -324.19507257 260.93914042 -327.375 263.5 C-330.88012695 264.06762695 -330.88012695 264.06762695 -334.86328125 263.98828125 C-335.9180793 263.97766914 -335.9180793 263.97766914 -336.9941864 263.96684265 C-339.22640227 263.93899212 -341.45605077 263.8762832 -343.6875 263.8125 C-345.20634381 263.78740451 -346.7252272 263.76459352 -348.24414062 263.74414062 C-351.95525248 263.68920007 -355.66487541 263.60299739 -359.375 263.5 C-358.58396284 272.16461628 -355.60309214 278.61529318 -349.375 284.875 C-340.0182278 292.24763524 -324.85727384 293.17914412 -313.375 292.5 C-310.77936034 292.06550428 -308.22895192 291.52306382 -305.66015625 290.953125 C-300.61293948 289.95230937 -295.88904754 289.84467791 -291.375 292.5 C-290.5625 294.1875 -290.5625 294.1875 -290.375 296.5 C-290.271875 297.634375 -290.16875 298.76875 -290.0625 299.9375 C-290.44749718 304.32646784 -291.03082541 305.63356464 -294.375 308.5 C-304.68322615 312.87097929 -315.38765374 312.63888499 -326.375 312.5 C-322.81303207 333.43742122 -315.02037438 350.67551054 -298.375 364.5 C-290.92813308 369.75635704 -282.27325189 374.40726298 -273.375 376.5 C-272.715 376.17 -272.055 375.84 -271.375 375.5 C-271.7359375 374.52160156 -272.096875 373.54320312 -272.46875 372.53515625 C-277.43485416 358.68345597 -277.43485416 358.68345597 -276.375 351.5 C-274.72897204 348.75662006 -273.5540016 347.85197751 -270.50390625 346.94140625 C-267.05126071 346.30831246 -265.10900828 346.19527535 -261.796875 347.5703125 C-258.68878191 350.04676087 -257.75828156 352.65561212 -256.5625 356.3125 C-256.31951172 357.00102051 -256.07652344 357.68954102 -255.82617188 358.39892578 C-254.99371046 360.7608534 -254.18454953 363.13012757 -253.375 365.5 C-252.39177667 368.33655134 -251.40021187 371.16967355 -250.39575195 373.9987793 C-249.73349619 375.86484845 -249.08164125 377.73465399 -248.44213867 379.60864258 C-241.55666832 399.08387164 -228.33484478 411.05789252 -210.0546875 419.91796875 C-204.06520297 422.59477055 -196.94737483 425.70146479 -190.3359375 425.41015625 C-187.28426322 423.9937417 -185.0292559 421.73685818 -182.625 419.4375 C-182.09205322 418.93508789 -181.55910645 418.43267578 -181.01000977 417.91503906 C-179.94302493 416.90562013 -178.87923109 415.89281625 -177.81884766 414.87646484 C-176.62780281 413.74100477 -175.41613997 412.62721358 -174.19921875 411.51953125 C-158.5849905 396.87513085 -148.25693848 376.52081544 -141.56738281 356.45214844 C-139.36175091 349.90373288 -139.36175091 349.90373288 -136.375 347.5 C-131.62519876 346.33201609 -129.49358949 346.05256421 -124.9375 347.875 C-122.18561826 350.6940008 -121.21338619 352.58047831 -120.99609375 356.53125 C-121.79768731 362.81177682 -124.33762371 368.6894314 -126.63134766 374.55615234 C-127.63357418 377.17589218 -128.51341374 379.83118402 -129.375 382.5 C-125.7044824 381.17471577 -122.85294759 379.51321857 -119.6875 377.25 C-114.92526198 374.15359157 -110.37548337 372.33653633 -105 370.6875 C-89.80761799 365.97881626 -75.12209351 359.07006562 -62.375 349.5 C-61.53195312 348.87738281 -60.68890625 348.25476563 -59.8203125 347.61328125 C-29.53472656 324.35659298 -17.0978811 292.08048514 -11.9140625 255.22265625 C-11.60438552 252.30583386 -11.45969333 249.43250666 -11.375 246.5 C-11.34921875 245.78602051 -11.3234375 245.07204102 -11.296875 244.33642578 C-9.81464527 198.30392883 -20.80424704 149.41369397 -39.9921875 107.5546875 C-42.09002434 102.92048296 -42.72642685 99.59568935 -42.375 94.5 C-40.175 89.9 -40.175 89.9 -37.375 88.5 C-35.98392257 88.37213238 -34.58765149 88.29801697 -33.19140625 88.25390625 C-32.3511792 88.22256592 -31.51095215 88.19122559 -30.64526367 88.15893555 C-29.75170166 88.12711182 -28.85813965 88.09528809 -27.9375 88.0625 C-12.83013832 87.64456911 -12.83013832 87.64456911 0.625 81.5 C4.06643444 77.48499315 4.91044492 72.68990763 4.625 67.5 C3.05982444 62.23952831 0.39793637 58.30150613 -4.375 55.5 C-20.46122006 48.42206317 -39.25481597 53.14204949 -54.375 60.5 Z M-226.375 435.5 C-227.08313412 439.78852159 -227.76268381 444.08112008 -228.4375 448.375 C-228.63666016 449.57898438 -228.83582031 450.78296875 -229.04101562 452.0234375 C-230.54969991 461.763715 -230.39578109 469.99244782 -227.6875 479.5 C-227.39488281 480.593125 -227.10226563 481.68625 -226.80078125 482.8125 C-225.59035766 485.73161295 -225.59035766 485.73161295 -222.60546875 486.84765625 C-219.4831595 487.47815884 -216.55466431 487.8008738 -213.375 487.9375 C-208.74587478 488.28209989 -205.17312467 488.60143117 -201.375 491.5 C-200 494.6875 -200 494.6875 -199.375 497.5 C-198.715 496.51 -198.055 495.52 -197.375 494.5 C-193.89940302 490.12969488 -189.75773474 488.91835159 -184.625 487.25 C-183.83222656 486.981875 -183.03945312 486.71375 -182.22265625 486.4375 C-180.27696311 485.78112159 -178.32643182 485.13911523 -176.375 484.5 C-176.92538295 483.26414546 -177.4762813 482.02852046 -178.02734375 480.79296875 C-178.56560791 479.58459351 -178.56560791 479.58459351 -179.11474609 478.35180664 C-179.92192477 476.55630299 -180.73888242 474.76516749 -181.56494141 472.97827148 C-183.67194811 468.40694118 -185.64170827 463.86846736 -187.30859375 459.1171875 C-190.2435822 450.50675986 -190.2435822 450.50675986 -196.44921875 444.27783203 C-201.21443009 442.44099073 -206.11133786 441.66618471 -211.14306641 440.92138672 C-215.23309209 440.14919416 -218.76027445 438.28437723 -222.44140625 436.41796875 C-224.31938321 435.35704311 -224.31938321 435.35704311 -226.375 435.5 Z " fill="#000000" transform="translate(437.375,2.5)"/>
<path d="M0 0 C2.75569447 2.18159145 4.43588747 3.87177494 6 7 C6.12272016 11.5406461 5.86358012 14.98402339 2.875 18.5 C-0.58462207 20.30502021 -3.09373338 20.93024524 -7 21 C-10.64732163 19.42502021 -13.17551854 17.55293758 -15 14 C-15.53198011 9.212179 -15.72509014 7.13597455 -13.125 3.0625 C-9.24699241 -0.70144855 -5.21240222 -0.82822281 0 0 Z " fill="#000000" transform="translate(233,178)"/>
</svg>
