<svg xmlns="http://www.w3.org/2000/svg" viewBox="0 0 1254 1254" width="1254" height="1254">
  <rect x="0" y="0" width="1254" height="1254" rx="200" ry="200" fill="#5491A5"/>
  <g transform="translate(0,1254) scale(0.1,-0.1)" fill="#FFFFFF" stroke="none">
    <path d="M9195 9544 c-248 -25 -1078 -107 -1555 -153 -163 -15 -306 -33 -318
-40 -44 -23 -55 -66 -63 -235 -4 -87 -11 -642 -15 -1233 -5 -775 -10 -1078
-18 -1089 -10 -13 -72 -19 -356 -35 -1307 -74 -1365 -77 -1379 -66 -11 9 -12
32 -7 107 10 141 99 1088 161 1711 71 710 72 727 52 766 -24 46 -61 55 -175
43 -54 -6 -308 -30 -567 -55 -456 -43 -1005 -95 -1404 -134 l-195 -18 -28 -32
c-36 -40 -36 -62 -3 -394 75 -774 112 -1431 121 -2197 16 -1214 -56 -2255
-242 -3525 -48 -326 -47 -347 17 -380 28 -15 53 -12 422 49 558 93 937 146
1487 207 117 13 153 27 173 67 24 46 26 83 37 592 11 561 11 583 40 1370 12
316 23 585 26 596 2 12 12 25 21 29 10 4 200 18 423 31 732 43 1234 74 1298
79 107 10 105 14 98 -193 -29 -775 -83 -1652 -151 -2468 -8 -93 9 -137 58
-153 28 -10 76 -8 233 8 1194 120 1508 151 1624 161 166 14 195 22 208 58 6
18 2 107 -14 273 -101 1104 -106 2278 -13 3274 57 617 177 1452 344 2395 95
539 96 552 48 590 -33 26 -85 25 -388 -6z"/>
  </g>
</svg>
